<svg width="336" height="117" viewBox="0 0 336 117" fill="none" xmlns="http://www.w3.org/2000/svg">
<g clip-path="url(#clip0)">
<path d="M2.849 38.1709H57.1766C57.8839 38.1709 58.5623 38.4718 59.0624 39.0073C59.5625 39.5429 59.8435 40.2692 59.8435 41.0266V45.5626H0.182129V41.0266C0.182129 40.2692 0.463103 39.5429 0.963238 39.0073C1.46337 38.4718 2.1417 38.1709 2.849 38.1709Z" fill="#FF0000"/>
<path d="M56.1454 37.6429C55.877 37.6442 55.6106 37.6927 55.3569 37.7867C55.2699 37.4118 55.0577 37.084 54.7604 36.8651C54.4631 36.6463 54.1013 36.5516 53.7432 36.5988C53.3852 36.6461 53.0557 36.8321 52.8169 37.1218C52.5782 37.4114 52.4467 37.7846 52.4474 38.1709C52.4474 38.1788 52.4492 38.1861 52.4494 38.194C52.2645 38.2127 52.0821 38.2532 51.9054 38.3146C51.8553 38.1015 51.7644 37.9017 51.6386 37.7281C51.5127 37.5544 51.3546 37.4106 51.1742 37.3057C51.6481 37.0251 52.023 36.5858 52.2412 36.0551C53.4476 36.0341 54.4197 35.1003 54.4197 33.9471C54.4197 32.7807 53.4263 31.8352 52.2009 31.8352C51.9324 31.8364 51.666 31.885 51.4124 31.9789C51.3668 31.7713 51.2825 31.5757 51.1644 31.4039C51.0464 31.2321 50.897 31.0877 50.7254 30.9795C50.5538 30.8712 50.3634 30.8013 50.1659 30.774C49.9683 30.7466 49.7677 30.7625 49.576 30.8205C49.3843 30.8785 49.2056 30.9775 49.0506 31.1115C48.8957 31.2455 48.7677 31.4118 48.6744 31.6002C48.5811 31.7887 48.5244 31.9954 48.5078 32.208C48.4912 32.4205 48.515 32.6345 48.5777 32.8369C48.5188 32.8809 48.4638 32.9302 48.4087 32.9793C48.1297 32.7222 47.7675 32.5931 47.4004 32.6199C47.2108 32.0368 46.8356 31.5438 46.3406 31.2272C45.8456 30.9105 45.2623 30.7905 44.693 30.8882C44.1236 30.9858 43.6045 31.2948 43.2266 31.7611C42.8487 32.2274 42.636 32.8213 42.6259 33.4386C42.4281 33.4554 42.2328 33.4971 42.044 33.5629C42.0228 33.4735 41.9944 33.3863 41.959 33.3023C42.1536 33.1184 42.31 32.8928 42.4181 32.6401C42.5261 32.3873 42.5833 32.1131 42.586 31.8352C42.586 30.6688 41.5926 29.7233 40.3672 29.7233C40.0988 29.7245 39.8324 29.7731 39.5787 29.867C39.5332 29.6594 39.4488 29.4638 39.3308 29.292C39.2127 29.1202 39.0633 28.9758 38.8917 28.8675C38.7201 28.7593 38.5298 28.6894 38.3322 28.6621C38.1347 28.6347 37.934 28.6506 37.7423 28.7086C37.5506 28.7666 37.3719 28.8656 37.217 28.9996C37.062 29.1336 36.934 29.2999 36.8407 29.4883C36.7474 29.6768 36.6908 29.8835 36.6741 30.0961C36.6575 30.3086 36.6813 30.5226 36.744 30.725C36.4336 30.9559 36.177 31.2603 35.9942 31.6146C35.8115 31.9689 35.7074 32.3635 35.6902 32.7679C35.6694 32.7877 35.6455 32.8038 35.6257 32.8248C35.6626 32.6741 35.6819 32.519 35.683 32.3632C35.683 31.1968 34.6897 30.2512 33.4642 30.2512C33.1958 30.2525 32.9294 30.3011 32.6757 30.395C32.6302 30.1874 32.5459 29.9917 32.4278 29.82C32.3097 29.6482 32.1604 29.5038 31.9888 29.3955C31.8171 29.2873 31.6268 29.2174 31.4293 29.19C31.2317 29.1627 31.031 29.1785 30.8394 29.2365C30.6477 29.2946 30.469 29.3936 30.314 29.5276C30.159 29.6616 30.0311 29.8279 29.9378 30.0163C29.8445 30.2048 29.7878 30.4115 29.7712 30.6241C29.7546 30.8366 29.7783 31.0506 29.8411 31.253C29.5138 31.4952 29.2462 31.8188 29.0614 32.1961C28.8766 32.5734 28.7801 32.9931 28.7801 33.4191C28.7801 33.8451 28.8766 34.2648 29.0614 34.6421C29.2462 35.0194 29.5138 35.343 29.8411 35.5852C29.7413 35.892 29.7413 36.226 29.8411 36.5328C29.594 36.7174 29.3803 36.9485 29.2103 37.2148C29.119 36.8602 28.9146 36.551 28.6326 36.3409C28.3506 36.1308 28.0088 36.0332 27.6665 36.0648C27.3243 36.0965 27.0032 36.2555 26.759 36.5143C26.5149 36.7731 26.3631 37.1152 26.33 37.4814C26.1323 37.3573 25.9187 37.265 25.696 37.2071C26.0954 36.9248 26.41 36.5247 26.6016 36.0551C27.8079 36.0341 28.7801 35.1003 28.7801 33.9471C28.7801 32.7807 27.7867 31.8352 26.5613 31.8352C26.2928 31.8364 26.0264 31.885 25.7728 31.9789C25.7272 31.7713 25.6429 31.5757 25.5248 31.4039C25.4068 31.2321 25.2574 31.0877 25.0858 30.9794C24.9142 30.8712 24.7238 30.8013 24.5263 30.774C24.3287 30.7466 24.1281 30.7625 23.9364 30.8205C23.7447 30.8785 23.566 30.9775 23.411 31.1115C23.2561 31.2455 23.1281 31.4118 23.0348 31.6002C22.9415 31.7887 22.8848 31.9954 22.8682 32.208C22.8516 32.4205 22.8754 32.6345 22.9381 32.8369C22.9065 32.8605 22.878 32.8882 22.8474 32.9133C22.7705 32.9056 22.6957 32.8911 22.6167 32.8911C22.3483 32.8924 22.0819 32.941 21.8282 33.0349C21.8189 32.9951 21.8035 32.9581 21.7915 32.9195C21.8392 32.6845 21.8354 32.4408 21.7804 32.2076C21.7253 31.9744 21.6205 31.758 21.4742 31.5755C21.3279 31.3929 21.144 31.2492 20.9371 31.1556C20.7302 31.062 20.5058 31.0211 20.2816 31.036C20.1532 30.6531 19.9438 30.3072 19.6699 30.0254C19.3959 29.7436 19.0648 29.5334 18.7024 29.4114C18.34 29.2894 17.9561 29.2588 17.5809 29.322C17.2056 29.3852 16.849 29.5405 16.5391 29.7757C16.2292 30.011 15.9743 30.3198 15.7943 30.6781C15.6144 31.0363 15.5143 31.4343 15.5019 31.8409C15.4894 32.2475 15.565 32.6516 15.7226 33.0217C15.8803 33.3918 16.1158 33.7179 16.4106 33.9744C16.241 33.9952 16.0737 34.0342 15.9114 34.0908C15.8531 33.8334 15.7349 33.596 15.5678 33.4006C15.4007 33.2053 15.1902 33.0584 14.9559 32.9737C14.7215 32.8889 14.4709 32.869 14.2275 32.9159C13.984 32.9627 13.7556 33.0748 13.5634 33.2416C13.3437 32.9622 13.0688 32.7384 12.7585 32.5865C12.4482 32.4346 12.1103 32.3583 11.7692 32.3632C11.5007 32.3644 11.2344 32.413 10.9807 32.5069C10.9351 32.2993 10.8508 32.1036 10.7327 31.9319C10.6147 31.7601 10.4653 31.6157 10.2937 31.5074C10.1221 31.3992 9.93174 31.3293 9.73419 31.3019C9.53664 31.2746 9.33597 31.2904 9.14429 31.3485C8.95261 31.4065 8.77389 31.5055 8.61894 31.6395C8.46398 31.7735 8.33599 31.9398 8.24269 32.1282C8.1494 32.3167 8.09274 32.5234 8.07612 32.736C8.05951 32.9485 8.08329 33.1625 8.14603 33.3649C7.81877 33.6072 7.55128 33.9308 7.36648 34.3081C7.18169 34.6854 7.0851 35.105 7.08501 35.531C7.08501 35.5392 7.08721 35.5467 7.08727 35.5549C6.73764 35.4981 6.38024 35.5394 6.04997 35.6748C6.00445 35.4671 5.92011 35.2715 5.80204 35.0997C5.68397 34.9279 5.53461 34.7836 5.36299 34.6753C5.19137 34.567 5.00104 34.4971 4.8035 34.4698C4.60595 34.4425 4.40528 34.4583 4.2136 34.5163C4.02192 34.5743 3.84321 34.6734 3.68825 34.8074C3.5333 34.9414 3.40531 35.1076 3.31201 35.2961C3.21872 35.4845 3.16205 35.6913 3.14544 35.9038C3.12882 36.1164 3.1526 36.3303 3.21533 36.5328C2.73981 36.8775 2.39217 37.3897 2.23285 37.9805C2.07354 38.5712 2.11265 39.2031 2.34337 39.7662C2.57409 40.3293 2.98182 40.7879 3.49567 41.0624C4.00951 41.3369 4.59695 41.4099 5.15583 41.2686C5.24482 41.8194 5.49539 42.3256 5.87118 42.7136C6.24696 43.1017 6.72843 43.3514 7.24574 43.4267C7.76305 43.502 8.28929 43.3988 8.74814 43.1321C9.20699 42.8655 9.57458 42.4493 9.79759 41.9438C9.99955 42.4014 10.3205 42.7869 10.7218 43.0541C11.1232 43.3212 11.5881 43.4588 12.0606 43.4503C12.5332 43.4417 12.9934 43.2874 13.3862 43.0059C13.7789 42.7243 14.0875 42.3274 14.2749 41.8629C14.5654 41.8585 14.8529 41.7989 15.124 41.6868C15.2869 42.1869 15.5871 42.6227 15.9852 42.9371C16.3833 43.2515 16.8608 43.4299 17.3551 43.449C17.8495 43.468 18.3377 43.3267 18.7558 43.0437C19.1739 42.7607 19.5026 42.3491 19.6986 41.8629C20.0581 41.8552 20.4115 41.7616 20.7328 41.5888C20.9578 42.0147 21.2893 42.3648 21.6901 42.5998C22.0908 42.8347 22.5449 42.9452 23.0011 42.9188C23.4574 42.8924 23.8977 42.7302 24.2724 42.4503C24.6472 42.1705 24.9416 41.7842 25.1224 41.3349C25.2547 41.3314 25.3865 41.3166 25.5166 41.2907C25.7011 41.7698 26.0134 42.1801 26.4143 42.4703C26.8153 42.7606 27.2872 42.9178 27.7712 42.9226C28.2552 42.9273 28.7297 42.7792 29.1355 42.4968C29.5414 42.2145 29.8605 41.8103 30.0531 41.3349C30.2467 41.329 30.4391 41.2987 30.626 41.2444C31.1216 41.3923 31.6483 41.366 32.1289 41.1695C32.6095 40.973 33.0185 40.6166 33.2958 40.1527C33.1409 40.7956 33.218 41.4774 33.5118 42.0621C33.8056 42.6469 34.2944 43.0915 34.8808 43.3073C35.4672 43.5232 36.1081 43.4943 36.6755 43.2266C37.2429 42.9589 37.6953 42.4719 37.9422 41.8629C38.3017 41.8552 38.655 41.7616 38.9764 41.5888C39.2014 42.0147 39.5329 42.3648 39.9337 42.5998C40.3344 42.8347 40.7885 42.9452 41.2447 42.9188C41.7009 42.8924 42.1412 42.7302 42.516 42.4503C42.8908 42.1705 43.1852 41.7842 43.366 41.3349C43.7255 41.3272 44.0788 41.2336 44.4002 41.0609C44.5736 41.3917 44.8122 41.6781 45.0994 41.9002C45.3866 42.1223 45.7156 42.2748 46.0634 42.347C46.4113 42.4192 46.7696 42.4094 47.1135 42.3183C47.4575 42.2271 47.7787 42.0569 48.055 41.8194C48.1406 42.3245 48.3625 42.7916 48.6931 43.1633C49.0238 43.5349 49.4489 43.7947 49.9159 43.9107C50.3829 44.0266 50.8713 43.9936 51.321 43.8158C51.7707 43.6379 52.1619 43.323 52.4464 42.9098C52.7423 43.1527 53.0861 43.3199 53.4515 43.3989C53.817 43.4778 54.1944 43.4664 54.5551 43.3654C54.9158 43.2644 55.2502 43.0765 55.5328 42.8162C55.8154 42.5558 56.0387 42.2297 56.1858 41.8629C57.3921 41.8418 58.3642 40.908 58.3642 39.7548C58.3642 38.5884 57.3708 37.6429 56.1454 37.6429ZM12.0758 36.5533C12.0732 36.566 12.0714 36.579 12.0689 36.5919C12.051 36.5911 12.0339 36.587 12.0157 36.587C11.942 36.589 11.8686 36.5969 11.796 36.6107C11.8 36.6012 11.8056 36.5927 11.8095 36.5831C11.8987 36.5783 11.9876 36.5684 12.0758 36.5533ZM32.6757 35.6748C32.6685 35.644 32.6562 35.6158 32.6474 35.5858C33.0239 35.3063 33.3206 34.9204 33.5046 34.4712C33.8288 34.4693 34.1491 34.3944 34.4444 34.2512C34.7398 34.1079 35.0037 33.8997 35.2189 33.64C35.2 33.7411 35.1903 33.844 35.19 33.9471C35.192 34.1082 35.2173 34.268 35.2648 34.4209C34.8415 34.7369 34.521 35.1868 34.3483 35.7075C33.8121 35.484 33.2191 35.4724 32.6757 35.6748V35.6748ZM47.4433 35.8716C47.4423 35.8393 47.4461 35.8059 47.4441 35.7738C47.507 35.7735 47.5697 35.769 47.632 35.7601C47.7277 36.1017 47.8875 36.4188 48.1017 36.6918C48.0552 36.7058 48.0062 36.7142 47.9609 36.7307C47.8812 36.3912 47.6993 36.0893 47.4433 35.8716Z" fill="#F9A825"/>
<path d="M5.14879 40.8108C4.44941 40.8107 3.75734 40.9632 3.11483 41.2591C2.47231 41.5549 1.89283 41.9878 1.41174 42.5314C0.930641 43.0749 0.558025 43.7178 0.316626 44.4207C0.0752264 45.1235 -0.0298945 45.8717 0.0076791 46.6195L3.34649 95.7821C3.41689 97.1912 3.98926 98.5177 4.9457 99.4884C5.90213 100.459 7.16981 101 8.4876 101H51.5378C52.8555 101 54.1232 100.459 55.0797 99.4884C56.0361 98.5177 56.6085 97.1912 56.6789 95.7821L60.0177 46.6195C60.0553 45.8717 59.9501 45.1235 59.7087 44.4207C59.4673 43.7178 59.0947 43.0749 58.6136 42.5314C58.1325 41.9878 57.553 41.5549 56.9105 41.2591C56.268 40.9632 55.576 40.8107 54.8766 40.8108H5.14879Z" fill="white"/>
<path d="M10.5365 40.8108H7.57812V101H10.5365V40.8108Z" fill="#FF0000"/>
<path d="M18.9186 40.8108H15.9602V101H18.9186V40.8108Z" fill="#FF0000"/>
<path d="M27.3007 40.8108H24.3423V101H27.3007V40.8108Z" fill="#FF0000"/>
<path d="M35.683 40.8108H32.7246V101H35.683V40.8108Z" fill="#FF0000"/>
<path d="M44.0653 40.8108H41.1069V101H44.0653V40.8108Z" fill="#FF0000"/>
<path d="M52.4474 40.8108H49.489V101H52.4474V40.8108Z" fill="#FF0000"/>
<path d="M92.7813 13.932L91.167 10.7333L74.8135 20.1976C74.4433 20.4122 74.1409 20.7397 73.9448 21.1385C73.7487 21.5374 73.6677 21.9897 73.7121 22.4379L75.6748 42.2203L79.0522 41.8357L77.1801 22.966L92.7813 13.932Z" fill="#3F3D56"/>
<path d="M89.9537 7.20247L86.2097 7.64996L87.3872 20.1103L91.1312 19.6628L89.9537 7.20247Z" fill="#6C63FF"/>
<path d="M84.3839 10.4951L80.6399 10.9426L81.8173 23.403L85.5614 22.9555L84.3839 10.4951Z" fill="#6C63FF"/>
<path d="M79.7072 21.7968L77.1305 22.9335L74.7817 9.78229L78.5288 9.33473L79.7072 21.7968Z" fill="#6C63FF"/>
<path d="M82.0228 23.0572L70.3352 24.4532L70.7016 28.3285L82.3893 26.9324L82.0228 23.0572Z" fill="#6C63FF"/>
<path d="M82.5626 28.4808L70.875 29.8768L71.2414 33.752L82.9291 32.356L82.5626 28.4808Z" fill="#6C63FF"/>
<path d="M83.099 33.9048L71.4114 35.3008L71.7778 39.176L83.4654 37.78L83.099 33.9048Z" fill="#6C63FF"/>
<path d="M95.2743 98.9909L72.7157 101.56L61.3206 43.0284L94.3163 39.2708L95.2743 98.9909Z" fill="#5447E1"/>
<path d="M96.6734 38.0054L58.9211 42.3047L59.3124 46.2478L97.0646 41.9485L96.6734 38.0054Z" fill="#3F3D56"/>
</g>
<path d="M105.9 101V58.05H119L122.6 84.25L126.2 58.05H139.4V101H131.55V70.05L126.6 101H118.9L113.65 70.05V101H105.9ZM155.955 101.4C152.488 101.4 149.855 100.35 148.055 98.25C146.255 96.1167 145.355 93.1333 145.355 89.3V68.85C145.355 65.15 146.255 62.3667 148.055 60.5C149.855 58.6 152.488 57.65 155.955 57.65C159.421 57.65 162.055 58.6 163.855 60.5C165.655 62.3667 166.555 65.15 166.555 68.85V89.3C166.555 93.1667 165.655 96.15 163.855 98.25C162.055 100.35 159.421 101.4 155.955 101.4ZM155.955 93.5C156.721 93.5 157.238 93.1667 157.505 92.5C157.771 91.8333 157.905 90.9 157.905 89.7V68.7C157.905 67.7667 157.771 67.0167 157.505 66.45C157.271 65.85 156.771 65.55 156.005 65.55C154.571 65.55 153.855 66.6333 153.855 68.8V89.75C153.855 90.9833 154.005 91.9167 154.305 92.55C154.605 93.1833 155.155 93.5 155.955 93.5ZM182.771 101.4C179.304 101.4 176.671 100.35 174.871 98.25C173.071 96.1167 172.171 93.1333 172.171 89.3V68.85C172.171 65.15 173.071 62.3667 174.871 60.5C176.671 58.6 179.304 57.65 182.771 57.65C186.238 57.65 188.871 58.6 190.671 60.5C192.471 62.3667 193.371 65.15 193.371 68.85V89.3C193.371 93.1667 192.471 96.15 190.671 98.25C188.871 100.35 186.238 101.4 182.771 101.4ZM182.771 93.5C183.538 93.5 184.054 93.1667 184.321 92.5C184.588 91.8333 184.721 90.9 184.721 89.7V68.7C184.721 67.7667 184.588 67.0167 184.321 66.45C184.088 65.85 183.588 65.55 182.821 65.55C181.388 65.55 180.671 66.6333 180.671 68.8V89.75C180.671 90.9833 180.821 91.9167 181.121 92.55C181.421 93.1833 181.971 93.5 182.771 93.5ZM199.338 101V58.05H208.188L212.137 78.6V58.05H220.438V101H212.038L207.738 79.5V101H199.338ZM226.74 101V58.05H235.34V93.7H244.19V101H226.74ZM248.713 101V58.05H257.013V101H248.713ZM271.791 101.4C268.691 101.4 266.374 100.317 264.841 98.15C263.341 95.95 262.591 92.6333 262.591 88.2V69.7C262.591 65.7333 263.474 62.7333 265.241 60.7C267.008 58.6667 269.641 57.65 273.141 57.65C275.974 57.65 278.174 58.2167 279.741 59.35C281.308 60.4833 282.391 62.1333 282.991 64.3C283.591 66.4667 283.891 69.25 283.891 72.65H275.491V68.8C275.491 67.7667 275.341 66.9667 275.041 66.4C274.774 65.8333 274.274 65.55 273.541 65.55C271.908 65.55 271.091 66.6167 271.091 68.75V89.55C271.091 90.85 271.258 91.8333 271.591 92.5C271.924 93.1667 272.508 93.5 273.341 93.5C274.174 93.5 274.758 93.1667 275.091 92.5C275.424 91.8333 275.591 90.85 275.591 89.55V83.4H273.291V76H283.791V101H280.341L278.891 97.4C277.358 100.067 274.991 101.4 271.791 101.4ZM289.709 101V58.05H298.259V73.4H302.309V58.05H310.859V101H302.309V81.5H298.259V101H289.709ZM320.86 101V66.3H315.76V58.05H334.56V66.3H329.46V101H320.86Z" fill="url(#paint0_linear)"/>
<defs>
<linearGradient id="paint0_linear" x1="220" y1="44" x2="220" y2="180" gradientUnits="userSpaceOnUse">
<stop stop-color="#3F3D56"/>
<stop offset="1" stop-color="#3F3D56" stop-opacity="0"/>
</linearGradient>
<clipPath id="clip0">
<rect width="104" height="102" fill="white" transform="translate(0 -1)"/>
</clipPath>
</defs>
</svg>
