<svg width="398" height="140" viewBox="0 0 398 140" fill="none" xmlns="http://www.w3.org/2000/svg">
<g clip-path="url(#clip0)">
<path d="M3.36736 46.3039H67.5882C68.4243 46.3039 69.2261 46.6595 69.8173 47.2926C70.4086 47.9257 70.7407 48.7843 70.7407 49.6796V55.0416H0.214844V49.6796C0.214844 48.7843 0.546984 47.9257 1.1382 47.2926C1.72941 46.6595 2.53126 46.3039 3.36736 46.3039V46.3039Z" fill="#FF0000"/>
<path d="M66.369 45.6799C66.0517 45.6814 65.7368 45.7389 65.4369 45.8499C65.334 45.4067 65.0832 45.0192 64.7318 44.7605C64.3803 44.5018 63.9526 44.3899 63.5294 44.4458C63.1061 44.5016 62.7166 44.7215 62.4344 45.0639C62.1522 45.4063 61.9968 45.8474 61.9976 46.3041C61.9976 46.3134 61.9997 46.322 61.9999 46.3313C61.7813 46.3535 61.5657 46.4014 61.3569 46.474C61.2976 46.222 61.1902 45.9859 61.0415 45.7806C60.8927 45.5753 60.7058 45.4053 60.4925 45.2813C61.0527 44.9497 61.4958 44.4303 61.7538 43.803C63.1798 43.7782 64.329 42.6743 64.329 41.3111C64.329 39.9323 63.1547 38.8146 61.7061 38.8146C61.3888 38.8161 61.0739 38.8735 60.774 38.9845C60.7202 38.7391 60.6205 38.5078 60.481 38.3048C60.3414 38.1017 60.1648 37.931 59.962 37.8031C59.7591 37.6751 59.5341 37.5924 59.3006 37.5601C59.067 37.5278 58.8298 37.5465 58.6032 37.6151C58.3767 37.6837 58.1654 37.8008 57.9822 37.9592C57.7991 38.1176 57.6478 38.3141 57.5375 38.5369C57.4272 38.7597 57.3602 39.0041 57.3406 39.2553C57.3209 39.5066 57.349 39.7595 57.4232 39.9988C57.3535 40.0507 57.2885 40.109 57.2234 40.167C56.8937 39.8632 56.4655 39.7106 56.0315 39.7422C55.8073 39.053 55.3638 38.4701 54.7787 38.0959C54.1935 37.7216 53.504 37.5797 52.831 37.6951C52.158 37.8106 51.5444 38.1759 51.0976 38.7271C50.6509 39.2783 50.3995 39.9803 50.3876 40.71C50.1537 40.7298 49.9228 40.7792 49.6997 40.8569C49.6746 40.7513 49.641 40.6482 49.5992 40.5489C49.8293 40.3315 50.0142 40.0648 50.1419 39.7661C50.2695 39.4673 50.3372 39.1432 50.3404 38.8146C50.3404 37.4358 49.1661 36.3181 47.7175 36.3181C47.4002 36.3196 47.0853 36.377 46.7854 36.4881C46.7316 36.2426 46.6319 36.0113 46.4924 35.8083C46.3528 35.6052 46.1762 35.4345 45.9734 35.3066C45.7705 35.1786 45.5455 35.096 45.312 35.0637C45.0784 35.0314 44.8412 35.0501 44.6146 35.1186C44.3881 35.1872 44.1768 35.3043 43.9936 35.4627C43.8105 35.6211 43.6592 35.8176 43.5489 36.0404C43.4386 36.2632 43.3716 36.5076 43.352 36.7588C43.3323 37.0101 43.3604 37.263 43.4346 37.5023C43.0676 37.7752 42.7643 38.135 42.5482 38.5539C42.3322 38.9727 42.2092 39.4392 42.1889 39.9171C42.1642 39.9406 42.136 39.9596 42.1126 39.9845C42.1562 39.8063 42.179 39.623 42.1804 39.4387C42.1804 38.0599 41.0061 36.9422 39.5575 36.9422C39.2402 36.9437 38.9253 37.0012 38.6254 37.1122C38.5716 36.8667 38.4719 36.6355 38.3324 36.4324C38.1928 36.2293 38.0162 36.0587 37.8133 35.9307C37.6105 35.8027 37.3855 35.7201 37.152 35.6878C36.9184 35.6555 36.6812 35.6742 36.4546 35.7428C36.2281 35.8113 36.0168 35.9284 35.8336 36.0868C35.6504 36.2452 35.4991 36.4418 35.3889 36.6645C35.2786 36.8873 35.2116 37.1317 35.192 37.3829C35.1723 37.6342 35.2004 37.8871 35.2746 38.1264C34.8877 38.4127 34.5714 38.7953 34.353 39.2413C34.1345 39.6873 34.0204 40.1834 34.0204 40.687C34.0204 41.1906 34.1345 41.6867 34.353 42.1327C34.5714 42.5787 34.8877 42.9612 35.2746 43.2475C35.1566 43.6102 35.1566 44.005 35.2746 44.3676C34.9825 44.5859 34.7299 44.859 34.5289 45.1739C34.421 44.7547 34.1794 44.3892 33.846 44.1408C33.5127 43.8925 33.1086 43.7771 32.7041 43.8145C32.2995 43.8519 31.9199 44.0399 31.6313 44.3458C31.3427 44.6517 31.1632 45.0562 31.1241 45.489C30.8904 45.3424 30.6379 45.2332 30.3747 45.1648C30.8469 44.8311 31.2186 44.3581 31.4452 43.803C32.8712 43.7782 34.0204 42.6743 34.0204 41.3111C34.0204 39.9323 32.8461 38.8146 31.3975 38.8146C31.0802 38.8161 30.7653 38.8735 30.4654 38.9845C30.4116 38.7391 30.3119 38.5078 30.1723 38.3048C30.0328 38.1017 29.8562 37.931 29.6533 37.8031C29.4505 37.6751 29.2255 37.5924 28.9919 37.5601C28.7584 37.5278 28.5212 37.5465 28.2946 37.6151C28.068 37.6837 27.8568 37.8007 27.6736 37.9592C27.4904 38.1176 27.3391 38.3141 27.2288 38.5369C27.1186 38.7597 27.0516 39.0041 27.0319 39.2553C27.0123 39.5066 27.0404 39.7595 27.1146 39.9988C27.0772 40.0266 27.0435 40.0594 27.0074 40.089C26.9165 40.08 26.8281 40.0629 26.7346 40.0629C26.4173 40.0644 26.1024 40.1218 25.8025 40.2328C25.7915 40.1857 25.7734 40.142 25.7591 40.0964C25.8156 39.8186 25.8111 39.5305 25.746 39.2548C25.6809 38.9791 25.557 38.7234 25.3841 38.5076C25.2111 38.2918 24.9938 38.122 24.7492 38.0113C24.5046 37.9006 24.2393 37.8522 23.9743 37.8699C23.8225 37.4173 23.575 37.0084 23.2512 36.6753C22.9273 36.3421 22.5359 36.0937 22.1075 35.9495C21.6791 35.8052 21.2254 35.769 20.7817 35.8437C20.3381 35.9184 19.9166 36.102 19.5503 36.3801C19.1839 36.6582 18.8826 37.0233 18.6699 37.4468C18.4572 37.8703 18.3389 38.3408 18.3242 38.8214C18.3094 39.302 18.3988 39.7797 18.5851 40.2172C18.7715 40.6548 19.0498 41.0402 19.3984 41.3434C19.1979 41.368 19.0002 41.4141 18.8082 41.481C18.7393 41.1767 18.5996 40.8961 18.4021 40.6651C18.2046 40.4342 17.9558 40.2606 17.6787 40.1604C17.4017 40.0602 17.1055 40.0367 16.8177 40.0921C16.5299 40.1475 16.2599 40.28 16.0327 40.4772C15.773 40.1468 15.448 39.8823 15.0812 39.7027C14.7144 39.5232 14.315 39.433 13.9117 39.4387C13.5944 39.4402 13.2795 39.4976 12.9796 39.6087C12.9258 39.3632 12.8261 39.132 12.6866 38.9289C12.547 38.7258 12.3704 38.5552 12.1676 38.4272C11.9647 38.2992 11.7397 38.2166 11.5062 38.1843C11.2727 38.152 11.0354 38.1707 10.8089 38.2393C10.5823 38.3078 10.371 38.4249 10.1878 38.5833C10.0047 38.7417 9.85336 38.9383 9.74308 39.161C9.63279 39.3838 9.56581 39.6282 9.54617 39.8794C9.52653 40.1307 9.55464 40.3836 9.62881 40.6229C9.24196 40.9093 8.92576 41.2919 8.70731 41.7378C8.48886 42.1838 8.37468 42.6799 8.37458 43.1835C8.37458 43.1931 8.37718 43.202 8.37725 43.2116C7.96395 43.1446 7.54147 43.1934 7.15105 43.3534C7.09725 43.1079 6.99755 42.8767 6.85797 42.6736C6.7184 42.4706 6.54185 42.2999 6.33898 42.1719C6.1361 42.0439 5.91112 41.9613 5.67759 41.929C5.44407 41.8967 5.20686 41.9154 4.98028 41.984C4.75369 42.0526 4.54244 42.1696 4.35926 42.3281C4.17609 42.4865 4.02479 42.683 3.91451 42.9058C3.80422 43.1285 3.73724 43.3729 3.7176 43.6242C3.69796 43.8754 3.72606 44.1283 3.80022 44.3676C3.23811 44.7751 2.82715 45.3807 2.63883 46.079C2.45051 46.7773 2.49674 47.5242 2.76947 48.1899C3.0422 48.8555 3.52419 49.3977 4.13161 49.7222C4.73902 50.0466 5.43344 50.1329 6.09409 49.9659C6.19929 50.617 6.49548 51.2153 6.9397 51.6741C7.38392 52.1328 7.95307 52.428 8.56458 52.517C9.17609 52.6059 9.79816 52.484 10.3406 52.1688C10.883 51.8536 11.3175 51.3616 11.5811 50.7641C11.8199 51.3049 12.1992 51.7606 12.6737 52.0765C13.1482 52.3923 13.6977 52.5549 14.2563 52.5448C14.8149 52.5347 15.3589 52.3523 15.8232 52.0195C16.2874 51.6867 16.6522 51.2175 16.8737 50.6683C17.2172 50.6632 17.557 50.5927 17.8774 50.4603C18.0701 51.0515 18.4249 51.5666 18.8955 51.9383C19.3661 52.3099 19.9305 52.5208 20.5149 52.5433C21.0993 52.5658 21.6764 52.3988 22.1707 52.0643C22.6649 51.7297 23.0534 51.2432 23.2852 50.6683C23.7101 50.6593 24.1278 50.5486 24.5077 50.3444C24.7736 50.8478 25.1655 51.2617 25.6393 51.5394C26.113 51.8172 26.6497 51.9478 27.1891 51.9166C27.7284 51.8854 28.2488 51.6936 28.6919 51.3628C29.1349 51.032 29.4829 50.5753 29.6966 50.0442C29.853 50.0401 30.0089 50.0227 30.1627 49.992C30.3807 50.5584 30.7498 51.0434 31.2238 51.3864C31.6978 51.7295 32.2557 51.9155 32.8278 51.921C33.3999 51.9266 33.9608 51.7516 34.4405 51.4178C34.9203 51.084 35.2975 50.6062 35.5252 50.0442C35.7541 50.0373 35.9815 50.0014 36.2025 49.9373C36.7882 50.1121 37.4109 50.0811 37.979 49.8488C38.5471 49.6165 39.0306 49.1951 39.3584 48.6467C39.1753 49.4067 39.2664 50.2127 39.6137 50.9039C39.961 51.5951 40.5389 52.1207 41.2321 52.3759C41.9253 52.631 42.6828 52.5969 43.3536 52.2804C44.0243 51.964 44.559 51.3883 44.8509 50.6683C45.2759 50.6593 45.6936 50.5486 46.0734 50.3444C46.3394 50.8478 46.7313 51.2617 47.205 51.5394C47.6788 51.8172 48.2155 51.9478 48.7548 51.9166C49.2941 51.8854 49.8146 51.6936 50.2576 51.3628C50.7007 51.032 51.0486 50.5753 51.2624 50.0442C51.6873 50.0352 52.105 49.9245 52.4849 49.7203C52.6899 50.1114 52.9719 50.45 53.3115 50.7125C53.651 50.9751 54.0399 51.1553 54.4511 51.2406C54.8622 51.326 55.2858 51.3144 55.6924 51.2067C56.099 51.099 56.4787 50.8978 56.8053 50.617C56.9065 51.214 57.1687 51.7663 57.5597 52.2056C57.9506 52.6449 58.453 52.952 59.005 53.0891C59.5571 53.2262 60.1345 53.1872 60.6661 52.9769C61.1976 52.7667 61.6601 52.3944 61.9963 51.906C62.3461 52.193 62.7525 52.3908 63.1845 52.4841C63.6165 52.5774 64.0628 52.5639 64.4891 52.4445C64.9155 52.3251 65.3108 52.1031 65.6449 51.7952C65.9789 51.4874 66.2429 51.102 66.4167 50.6683C67.8427 50.6435 68.9919 49.5396 68.9919 48.1764C68.9919 46.7976 67.8176 45.6799 66.369 45.6799ZM14.2742 44.3919C14.2711 44.4069 14.269 44.4223 14.2661 44.4375C14.2448 44.4367 14.2247 44.4317 14.2032 44.4317C14.1161 44.4341 14.0293 44.4434 13.9435 44.4597C13.9482 44.4485 13.9549 44.4385 13.9594 44.4271C14.0649 44.4215 14.1699 44.4097 14.2742 44.3919V44.3919ZM38.6254 43.3534C38.6169 43.3171 38.6024 43.2836 38.5919 43.2482C39.037 42.9178 39.3877 42.4617 39.6052 41.9306C39.9885 41.9285 40.3671 41.8398 40.7162 41.6705C41.0654 41.5012 41.3773 41.2551 41.6317 40.9481C41.6093 41.0676 41.5979 41.1892 41.5975 41.3111C41.5999 41.5016 41.6298 41.6905 41.686 41.8712C41.1856 42.2447 40.8067 42.7765 40.6026 43.3921C39.9688 43.1279 39.2678 43.1142 38.6254 43.3534V43.3534ZM56.0822 43.5861C56.0811 43.5479 56.0855 43.5084 56.0832 43.4705C56.1575 43.4702 56.2316 43.4648 56.3053 43.4543C56.4184 43.8581 56.6073 44.2329 56.8605 44.5557C56.8055 44.5722 56.7476 44.5822 56.694 44.6016C56.5999 44.2003 56.3849 43.8434 56.0822 43.5861V43.5861Z" fill="#F9A825"/>
<path d="M6.08611 49.4247C5.25936 49.4247 4.44127 49.605 3.68176 49.9547C2.92224 50.3044 2.23723 50.8161 1.66853 51.4587C1.09982 52.1012 0.659354 52.8611 0.373995 53.692C0.0886367 54.5229 -0.0356269 55.4073 0.00878889 56.2913L3.95561 114.407C4.03883 116.072 4.71542 117.64 5.84603 118.788C6.97664 119.935 8.47516 120.575 10.0329 120.575H60.9226C62.4804 120.575 63.9789 119.935 65.1095 118.788C66.2401 117.64 66.9167 116.072 66.9999 114.407L70.9468 56.2913C70.9912 55.4073 70.8669 54.5229 70.5816 53.692C70.2962 52.8611 69.8557 52.1012 69.287 51.4587C68.7183 50.8161 68.0333 50.3044 67.2738 49.9547C66.5143 49.605 65.6962 49.4247 64.8694 49.4247H6.08611Z" fill="white"/>
<path d="M12.4552 49.4247H8.95801V120.575H12.4552V49.4247Z" fill="#FF0000"/>
<path d="M22.3631 49.4247H18.866V120.575H22.3631V49.4247Z" fill="#FF0000"/>
<path d="M32.2718 49.4247H28.7747V120.575H32.2718V49.4247Z" fill="#FF0000"/>
<path d="M42.1805 49.4247H38.6833V120.575H42.1805V49.4247Z" fill="#FF0000"/>
<path d="M52.0892 49.4247H48.592V120.575H52.0892V49.4247Z" fill="#FF0000"/>
<path d="M61.9979 49.4247H58.5007V120.575H61.9979V49.4247Z" fill="#FF0000"/>
<path d="M109.677 17.6512L107.768 13.87L88.437 25.0578C87.9993 25.3114 87.6419 25.6985 87.4101 26.17C87.1782 26.6415 87.0825 27.1762 87.1349 27.706L89.4551 51.0909L93.4476 50.6362L91.2345 28.3303L109.677 17.6512Z" fill="#3F3D56"/>
<path d="M106.334 9.69599L101.908 10.225L103.3 24.9544L107.726 24.4254L106.334 9.69599Z" fill="#FCB057"/>
<path d="M99.7503 13.5884L95.3245 14.1174L96.7163 28.8468L101.142 28.3178L99.7503 13.5884Z" fill="#FCB057"/>
<path d="M94.222 26.9482L91.1762 28.292L88.3997 12.7458L92.829 12.2168L94.222 26.9482Z" fill="#FCB057"/>
<path d="M96.9591 28.4384L83.1431 30.0886L83.5762 34.6695L97.3922 33.0193L96.9591 28.4384Z" fill="#FCB057"/>
<path d="M97.5972 34.8492L83.7812 36.4995L84.2144 41.0804L98.0304 39.4301L97.5972 34.8492Z" fill="#FCB057"/>
<path d="M98.2313 41.261L84.4153 42.9113L84.8484 47.4922L98.6644 45.8419L98.2313 41.261Z" fill="#FCB057"/>
<path d="M112.624 118.199L85.9573 121.236L72.4871 52.046L111.491 47.6041L112.624 118.199Z" fill="#F9931C"/>
<path d="M114.278 46.1085L69.6509 51.1907L70.1133 55.8519L114.74 50.7697L114.278 46.1085Z" fill="#3F3D56"/>
</g>
<path d="M125.185 120.194V69.4232H140.67L144.926 100.394L149.181 69.4232H164.785V120.194H155.506V83.6084L149.654 120.194H140.552L134.346 83.6084V120.194H125.185ZM184.354 120.667C180.257 120.667 177.144 119.426 175.016 116.944C172.888 114.422 171.824 110.895 171.824 106.364V82.1899C171.824 77.8161 172.888 74.5259 175.016 72.3193C177.144 70.0733 180.257 68.9503 184.354 68.9503C188.452 68.9503 191.565 70.0733 193.693 72.3193C195.821 74.5259 196.885 77.8161 196.885 82.1899V106.364C196.885 110.935 195.821 114.461 193.693 116.944C191.565 119.426 188.452 120.667 184.354 120.667ZM184.354 111.329C185.261 111.329 185.872 110.935 186.187 110.147C186.502 109.359 186.66 108.255 186.66 106.837V82.0126C186.66 80.9093 186.502 80.0227 186.187 79.3528C185.911 78.6436 185.32 78.2889 184.414 78.2889C182.719 78.2889 181.872 79.5695 181.872 82.1308V106.896C181.872 108.354 182.049 109.457 182.404 110.206C182.759 110.954 183.409 111.329 184.354 111.329ZM216.054 120.667C211.956 120.667 208.843 119.426 206.716 116.944C204.588 114.422 203.524 110.895 203.524 106.364V82.1899C203.524 77.8161 204.588 74.5259 206.716 72.3193C208.843 70.0733 211.956 68.9503 216.054 68.9503C220.152 68.9503 223.265 70.0733 225.393 72.3193C227.521 74.5259 228.585 77.8161 228.585 82.1899V106.364C228.585 110.935 227.521 114.461 225.393 116.944C223.265 119.426 220.152 120.667 216.054 120.667ZM216.054 111.329C216.96 111.329 217.571 110.935 217.886 110.147C218.202 109.359 218.359 108.255 218.359 106.837V82.0126C218.359 80.9093 218.202 80.0227 217.886 79.3528C217.611 78.6436 217.02 78.2889 216.113 78.2889C214.419 78.2889 213.572 79.5695 213.572 82.1308V106.896C213.572 108.354 213.749 109.457 214.104 110.206C214.458 110.954 215.109 111.329 216.054 111.329ZM235.637 120.194V69.4232H246.099L250.768 93.7154V69.4232H260.58V120.194H250.65L245.567 94.7793V120.194H235.637ZM268.03 120.194V69.4232H278.196V111.565H288.657V120.194H268.03ZM294.004 120.194V69.4232H303.816V120.194H294.004ZM321.285 120.667C317.62 120.667 314.882 119.387 313.069 116.825C311.296 114.225 310.41 110.304 310.41 105.064V83.1947C310.41 78.5056 311.454 74.9593 313.542 72.5557C315.63 70.1521 318.743 68.9503 322.881 68.9503C326.23 68.9503 328.831 69.6202 330.683 70.9599C332.535 72.2996 333.815 74.2501 334.524 76.8113C335.234 79.3725 335.588 82.6627 335.588 86.6819H325.659V82.1308C325.659 80.9093 325.481 79.9636 325.127 79.2937C324.811 78.6239 324.22 78.2889 323.354 78.2889C321.423 78.2889 320.457 79.5498 320.457 82.0717V106.659C320.457 108.196 320.654 109.359 321.048 110.147C321.442 110.935 322.132 111.329 323.117 111.329C324.102 111.329 324.792 110.935 325.186 110.147C325.58 109.359 325.777 108.196 325.777 106.659V99.3895H323.058V90.6419H335.47V120.194H331.392L329.678 115.939C327.865 119.091 325.068 120.667 321.285 120.667ZM342.465 120.194V69.4232H352.572V87.5684H357.36V69.4232H367.467V120.194H357.36V97.1435H352.572V120.194H342.465ZM379.289 120.194V79.1755H373.26V69.4232H395.484V79.1755H389.455V120.194H379.289Z" fill="url(#paint0_linear)"/>
<defs>
<linearGradient id="paint0_linear" x1="260.063" y1="53.1945" x2="258.925" y2="149.543" gradientUnits="userSpaceOnUse">
<stop stop-color="white"/>
<stop offset="1" stop-color="#7E73FA"/>
</linearGradient>
<clipPath id="clip0">
<rect width="122.939" height="120.574" fill="white"/>
</clipPath>
</defs>
</svg>
