<svg width="336" height="85" viewBox="0 0 336 85" fill="none" xmlns="http://www.w3.org/2000/svg">
<g clip-path="url(#clip0)">
<path d="M196.548 -0.191406C195.767 -0.190698 195.019 0.119628 194.466 0.671509C193.914 1.22339 193.603 1.97175 193.602 2.75256V82.1126C193.603 82.8934 193.914 83.6418 194.466 84.1937C195.019 84.7455 195.767 85.0559 196.548 85.0566H333.162C333.942 85.0559 334.691 84.7455 335.243 84.1937C335.796 83.6418 336.107 82.8934 336.108 82.1126V2.75256C336.107 1.97175 335.796 1.22339 335.243 0.671509C334.691 0.119628 333.942 -0.190698 333.162 -0.191406H196.548Z" fill="#555555"/>
<path d="M211.815 6.80719C210.36 6.80888 208.965 7.38765 207.936 8.4165C206.907 9.44536 206.328 10.8403 206.327 12.2953V72.5699C206.328 74.0249 206.907 75.4199 207.936 76.4487C208.965 77.4776 210.36 78.0563 211.815 78.058H317.895C319.35 78.0563 320.745 77.4776 321.774 76.4487C322.802 75.4199 323.381 74.0249 323.383 72.5699V12.2953C323.381 10.8403 322.802 9.44535 321.774 8.4165C320.745 7.38765 319.35 6.80894 317.895 6.80725L211.815 6.80719Z" fill="#FF6584"/>
<path d="M198.084 25.9498H126.922V42.4324H198.084V25.9498Z" fill="#555555"/>
<path d="M3.09338 -0.191406C2.31297 -0.190166 1.5649 0.120403 1.01306 0.672241C0.461223 1.22408 0.150654 1.97215 0.149414 2.75256V82.1126C0.150654 82.893 0.461223 83.6411 1.01306 84.1929C1.5649 84.7448 2.31297 85.0553 3.09338 85.0566H139.709C140.49 85.0553 141.238 84.7448 141.79 84.1929C142.342 83.6411 142.652 82.893 142.653 82.1126V2.75256C142.652 1.97215 142.342 1.22408 141.79 0.672241C141.238 0.120403 140.49 -0.190166 139.709 -0.191406H3.09338Z" fill="#555555"/>
<path d="M18.3627 6.80719C16.9073 6.80836 15.5118 7.38688 14.4824 8.41577C13.4531 9.44466 12.8739 10.8399 12.8721 12.2953V72.5699C12.8739 74.0253 13.4531 75.4206 14.4824 76.4495C15.5118 77.4784 16.9073 78.0568 18.3627 78.058H124.44C125.896 78.0568 127.291 77.4784 128.32 76.4495C129.35 75.4206 129.929 74.0253 129.931 72.5699V12.2953C129.929 10.8399 129.35 9.44466 128.32 8.41577C127.291 7.38688 125.896 6.80842 124.44 6.80725L18.3627 6.80719Z" fill="#F9A825"/>
</g>
<defs>
<clipPath id="clip0">
<rect width="336" height="85" fill="white"/>
</clipPath>
</defs>
</svg>
